<svg xmlns="http://www.w3.org/2000/svg" xmlns:xlink="http://www.w3.org/1999/xlink" version="1.1" width="1000" height="1000" viewBox="0 0 1000 1000" xml:space="preserve">
<desc>Created with Fabric.js 3.5.0</desc>
<defs>
</defs>
<rect x="0" y="0" width="100%" height="100%" fill="#bfc5be"/>
<g transform="matrix(2.2391 0 0 2.3384 499.9918 484.811)" id="1604">
<g style="" vector-effect="non-scaling-stroke">
		<g transform="matrix(0.5584 0 0 0.5584 11.8829 -0.0193)" id="Layer_1">
<path style="stroke: none; stroke-width: 1; stroke-dasharray: none; stroke-linecap: butt; stroke-dashoffset: 0; stroke-linejoin: miter; stroke-miterlimit: 4; is-custom-font: none; font-file-url: none; fill: rgb(196,142,142); fill-rule: nonzero; opacity: 0.24;" transform=" translate(-342.1869, -311.7427)" d="M 682.41 419.07 c -4.79 20.34 -17.93 37 -33.82 50.91 a 233.53 233.53 0 0 1 -25.75 19.57 c -16.24 11 -33.33 21.07 -52.06 26.67 c -52.25 15.55 -110.67 -5.56 -162 12.6 c -19.89 7 -37.24 19.5 -55.78 29.46 c -41.91 22.6 -90.72 30.91 -137.91 26.16 c -64.36 -6.51 -124.54 -41.56 -164.77 -90.56 C -4.54 427.15 -22.35 334.56 36.68 253 c 31.45 -43.37 79.61 -71.37 116.54 -110.18 c 16 -16.74 29.84 -35.51 47.54 -50.41 c 20.76 -17.47 46 -28.81 71.56 -37.93 c 51.22 -18.19 111.59 -27 157.26 2.42 c 59.57 38.46 67.65 122.77 112.81 177.44 c 25.94 31.37 62.83 51.41 93.36 78.34 S 691.8 379.45 682.41 419.07 Z" stroke-linecap="round"/>
</g>
		<g transform="matrix(0.5584 0 0 0.5584 15.9437 119.7071)" id="Layer_1">
<path style="stroke: none; stroke-width: 1; stroke-dasharray: none; stroke-linecap: butt; stroke-dashoffset: 0; stroke-linejoin: miter; stroke-miterlimit: 4; is-custom-font: none; font-file-url: none; fill: rgb(196,142,142); fill-rule: nonzero; opacity: 0.24;" transform=" translate(-349.455, -526.1177)" d="M 648.59 470 a 233.53 233.53 0 0 1 -25.75 19.57 c -16.24 11 -33.33 21.07 -52.06 26.67 c -52.25 15.55 -110.67 -5.56 -162 12.6 c -19.89 7 -37.24 19.5 -55.78 29.46 c -41.91 22.6 -90.72 30.91 -137.91 26.16 c -64.36 -6.51 -124.54 -41.56 -164.77 -90.56 c 27.32 -12.72 71.26 -15.55 88.73 -17.66 c 94.66 -11.53 190 18.31 285.2 12.38 C 499.41 483.92 574.57 457 648.59 470 Z" stroke-linecap="round"/>
</g>
		<g transform="matrix(0.5584 0 0 0.5584 -16.2724 110.5814)" id="Layer_1">
<path style="stroke: none; stroke-width: 1; stroke-dasharray: none; stroke-linecap: butt; stroke-dashoffset: 0; stroke-linejoin: miter; stroke-miterlimit: 4; is-custom-font: none; font-file-url: none; fill: rgb(196,142,142); fill-rule: nonzero; opacity: 0.55;" transform=" translate(-291.7546, -509.7736)" d="M 160.16 534.42 c -6.74 0.36 -13.74 0.41 -19.94 -2.26 a 5.12 5.12 0 0 1 -2.78 -2.18 c -1.64 -3.31 3.36 -5.8 7 -6.15 l 52.34 -5.06 c 9.46 -0.92 20.09 -2.46 25.71 -10.14 c 3.21 -4.38 5 -10.84 10.33 -12 c 3.28 -0.7 7.31 0.93 9.71 -1.41 c 1.33 -1.28 1.56 -3.29 2.4 -4.93 c 2.21 -4.28 7.89 -5.1 12.71 -5.24 c 34.05 -1 67.78 5.81 101.7 8.81 a 459.46 459.46 0 0 0 87.05 -0.6 c -5.13 9.51 -17.23 12.49 -28 13.56 c -24.74 2.47 -50 0.08 -74.32 5 a 16.75 16.75 0 0 0 4.7 7.88 c -7.72 3 -16.15 3.33 -24.41 3.67 L 238.65 527 c -12.4 0.5 -25.46 -0.41 -37.53 2 A 294.19 294.19 0 0 1 160.16 534.42 Z" stroke-linecap="round"/>
</g>
		<g transform="matrix(0.5584 0 0 0.5584 -18.3059 -18.1485)" id="Layer_1">
<path style="stroke: none; stroke-width: 1; stroke-dasharray: none; stroke-linecap: butt; stroke-dashoffset: 0; stroke-linejoin: miter; stroke-miterlimit: 4; is-custom-font: none; font-file-url: none; fill: rgb(196,142,142); fill-rule: nonzero; opacity: 1;" transform=" translate(-288.1025, -279.261)" d="M 280.3 242.54 c -0.36 44.23 22.61 56.44 29.84 79.28 c 0.89 2.81 -1.6 3.75 -2.41 6.58 s -4.13 5.13 -6.75 3.78 c -1.37 -0.7 -2.16 -2.15 -2.9 -3.51 c -9.21 -16.94 -20.35 -14.57 -25.69 -33.1 c -1.15 -4 -3.61 -25.77 -3.24 -29.89 a 38.15 38.15 0 0 1 3.68 -12 c 0.71 -1.57 -8.14 -26.52 -6.82 -27.64 s 13.39 7.86 14.29 16.49" stroke-linecap="round"/>
</g>
		<g transform="matrix(0.5584 0 0 0.5584 -18.2054 -18.3495)" id="Layer_1">
<linearGradient id="SVGID_64" gradientUnits="userSpaceOnUse" gradientTransform="matrix(1 0 0 1 0 0)" x1="292.92" y1="276.24" x2="240.07" y2="293.86">
<stop offset="12%" style="stop-color:rgb(1,1,1);stop-opacity: 0"/>
<stop offset="95%" style="stop-color:rgb(1,1,1);stop-opacity: 1"/>
</linearGradient>
<path style="stroke: none; stroke-width: 1; stroke-dasharray: none; stroke-linecap: butt; stroke-dashoffset: 0; stroke-linejoin: miter; stroke-miterlimit: 4; is-custom-font: none; font-file-url: none; fill: url(#SVGID_64); fill-rule: nonzero; opacity: 1;" transform=" translate(-288.2825, -278.901)" d="M 280.48 242.18 c -0.36 44.23 22.61 56.44 29.84 79.28 c 0.89 2.81 -1.6 3.75 -2.41 6.58 s -4.13 5.13 -6.75 3.78 c -1.37 -0.7 -2.16 -2.15 -2.9 -3.5 c -9.21 -16.95 -20.35 -14.58 -25.69 -33.1 c -1.15 -4 -3.62 -25.78 -3.24 -29.9 a 38.15 38.15 0 0 1 3.68 -12 c 0.71 -1.57 -8.14 -26.52 -6.82 -27.64 s 13.39 7.86 14.29 16.49" stroke-linecap="round"/>
</g>
		<g transform="matrix(0.5584 0 0 0.5584 12.7798 45.844)" id="Layer_1">
<path style="stroke: none; stroke-width: 1; stroke-dasharray: none; stroke-linecap: butt; stroke-dashoffset: 0; stroke-linejoin: miter; stroke-miterlimit: 4; is-custom-font: none; font-file-url: none; fill: rgb(44,44,44); fill-rule: nonzero; opacity: 1;" transform=" translate(-343.7715, -393.8543)" d="M 402.2 359.8 c 2.42 7.05 5 14.06 7.09 21.2 c 8.65 29.14 10.15 59.86 11.61 90.22 c 0.13 2.88 0.07 6.24 -2.2 8 c -2.46 1.94 -12 2.14 -14 -0.3 s -2.53 -5.71 -3 -8.81 c -1.26 -8.75 -6.72 -28.93 -8.54 -37.57 c -6.29 -29.9 -12.28 -46.67 -28.19 -72.76 c -7 11.84 -9.47 31.49 -15.05 44.05 c -2.8 6.29 -5.63 12.95 -11 17.21 c -3.39 2.68 -11.53 9.72 -15.47 11.5 c -18.1 8.18 -27.9 15.1 -44.85 25.46 a 7.25 7.25 0 0 1 -2.61 1.14 c -3.39 0.54 -10.33 -9.44 -9.28 -12.71 s 4.09 -5.4 6.93 -7.34 a 357.46 357.46 0 0 0 43.47 -35 c 3.35 -3.16 6.69 -6.45 8.88 -10.5 c 3 -5.6 3.59 -12.14 4.11 -18.47 q 1.55 -19.15 3.1 -38.29 c 0.67 -8.23 1.63 -17.14 7.27 -23.17 c 4.37 -4.66 11 -6.77 17.36 -6.66 s 12.57 2.2 18.34 4.93 c 2.37 1.12 4.29 1.85 6.92 1.51 c 1.79 -0.23 2.8 -2.12 4.63 -1 c 2.35 1.49 3.77 13.09 4.6 15.95 Q 396.85 344.24 402.2 359.8 Z" stroke-linecap="round"/>
</g>
		<g transform="matrix(0.5584 0 0 0.5584 12.7798 45.844)" id="Layer_1">
<linearGradient id="SVGID_65" gradientUnits="userSpaceOnUse" gradientTransform="matrix(1 0 0 1 0 0)" x1="287.34" y1="400.56" x2="495.87" y2="386.18">
<stop offset="12%" style="stop-color:rgb(1,1,1);stop-opacity: 0"/>
<stop offset="95%" style="stop-color:rgb(1,1,1);stop-opacity: 1"/>
</linearGradient>
<path style="stroke: none; stroke-width: 1; stroke-dasharray: none; stroke-linecap: butt; stroke-dashoffset: 0; stroke-linejoin: miter; stroke-miterlimit: 4; is-custom-font: none; font-file-url: none; fill: url(#SVGID_65); fill-rule: nonzero; opacity: 1;" transform=" translate(-343.7715, -393.8543)" d="M 402.2 359.8 c 2.42 7.05 5 14.06 7.09 21.2 c 8.65 29.14 10.15 59.86 11.61 90.22 c 0.13 2.88 0.07 6.24 -2.2 8 c -2.46 1.94 -12 2.14 -14 -0.3 s -2.53 -5.71 -3 -8.81 c -1.26 -8.75 -6.72 -28.93 -8.54 -37.57 c -6.29 -29.9 -12.28 -46.67 -28.19 -72.76 c -7 11.84 -9.47 31.49 -15.05 44.05 c -2.8 6.29 -5.63 12.95 -11 17.21 c -3.39 2.68 -11.53 9.72 -15.47 11.5 c -18.1 8.18 -27.9 15.1 -44.85 25.46 a 7.25 7.25 0 0 1 -2.61 1.14 c -3.39 0.54 -10.33 -9.44 -9.28 -12.71 s 4.09 -5.4 6.93 -7.34 a 357.46 357.46 0 0 0 43.47 -35 c 3.35 -3.16 6.69 -6.45 8.88 -10.5 c 3 -5.6 3.59 -12.14 4.11 -18.47 q 1.55 -19.15 3.1 -38.29 c 0.67 -8.23 1.63 -17.14 7.27 -23.17 c 4.37 -4.66 11 -6.77 17.36 -6.66 s 12.57 2.2 18.34 4.93 c 2.37 1.12 4.29 1.85 6.92 1.51 c 1.79 -0.23 2.8 -2.12 4.63 -1 c 2.35 1.49 3.77 13.09 4.6 15.95 Q 396.85 344.24 402.2 359.8 Z" stroke-linecap="round"/>
</g>
		<g transform="matrix(0.5584 0 0 0.5584 -53.8052 54.802)" id="Layer_1">
<path style="stroke: none; stroke-width: 1; stroke-dasharray: none; stroke-linecap: butt; stroke-dashoffset: 0; stroke-linejoin: miter; stroke-miterlimit: 4; is-custom-font: none; font-file-url: none; fill: rgb(44,44,44); fill-rule: nonzero; opacity: 1;" transform=" translate(-224.5358, -409.8951)" d="M 251.43 404.79 A 163.42 163.42 0 0 1 246 423 c -5.27 13.73 -14.14 25.73 -22.9 37.54 l -24 32.34 c -1 1.38 -2.24 2.88 -4 3.1 a 6 6 0 0 1 -3.31 -0.82 c -2.91 -1.4 -5.79 -3.23 -7.39 -6 c -2.11 -3.69 -1.58 -8.41 0.22 -12.25 s 4.71 -7 7.44 -10.3 c 7.74 -9.25 14.25 -19.46 20.74 -29.64 c 3.09 -4.84 6.22 -9.77 7.86 -15.29 c 1.83 -6.15 1.71 -12.68 1.79 -19.09 A 290.79 290.79 0 0 1 228.16 349 c 2.17 -10.82 6.7 -24.36 19.73 -25.16 c 7.93 -0.48 14.86 3.86 17.15 11.43 c 2.83 9.37 -1 20.06 -3.34 29.09 Q 256.57 384.58 251.43 404.79 Z" stroke-linecap="round"/>
</g>
		<g transform="matrix(0.5584 0 0 0.5584 -53.8052 54.802)" id="Layer_1">
<linearGradient id="SVGID_66" gradientUnits="userSpaceOnUse" gradientTransform="matrix(1 0 0 1 0 0)" x1="183.09" y1="409.92" x2="266.04" y2="409.92">
<stop offset="12%" style="stop-color:rgb(1,1,1);stop-opacity: 0"/>
<stop offset="95%" style="stop-color:rgb(1,1,1);stop-opacity: 1"/>
</linearGradient>
<path style="stroke: none; stroke-width: 1; stroke-dasharray: none; stroke-linecap: butt; stroke-dashoffset: 0; stroke-linejoin: miter; stroke-miterlimit: 4; is-custom-font: none; font-file-url: none; fill: url(#SVGID_66); fill-rule: nonzero; opacity: 1;" transform=" translate(-224.5358, -409.8951)" d="M 251.43 404.79 A 163.42 163.42 0 0 1 246 423 c -5.27 13.73 -14.14 25.73 -22.9 37.54 l -24 32.34 c -1 1.38 -2.24 2.88 -4 3.1 a 6 6 0 0 1 -3.31 -0.82 c -2.91 -1.4 -5.79 -3.23 -7.39 -6 c -2.11 -3.69 -1.58 -8.41 0.22 -12.25 s 4.71 -7 7.44 -10.3 c 7.74 -9.25 14.25 -19.46 20.74 -29.64 c 3.09 -4.84 6.22 -9.77 7.86 -15.29 c 1.83 -6.15 1.71 -12.68 1.79 -19.09 A 290.79 290.79 0 0 1 228.16 349 c 2.17 -10.82 6.7 -24.36 19.73 -25.16 c 7.93 -0.48 14.86 3.86 17.15 11.43 c 2.83 9.37 -1 20.06 -3.34 29.09 Q 256.57 384.58 251.43 404.79 Z" stroke-linecap="round"/>
</g>
		<g transform="matrix(0.5584 0 0 0.5584 -29.6731 54.2282)" id="Layer_1">
<path style="stroke: none; stroke-width: 1; stroke-dasharray: none; stroke-linecap: butt; stroke-dashoffset: 0; stroke-linejoin: miter; stroke-miterlimit: 4; is-custom-font: none; font-file-url: none; fill: rgb(44,44,44); fill-rule: nonzero; opacity: 1;" transform=" translate(-267.7493, -408.8674)" d="M 292.9 413.62 c 3 9 5.78 18 8.57 27 l 10.18 33 c 1.08 3.49 2.17 7.18 1.35 10.74 s -4.3 6.78 -7.85 5.94 c -2.74 -0.64 -4.45 -3.3 -5.84 -5.75 c -16 -28.4 -26.72 -60 -46.38 -86 c -7.25 -9.59 -15.65 -18.34 -22 -28.58 s -10.45 -22.52 -8 -34.28 c 0.6 -2.86 1.78 -5.88 4.32 -7.32 c 1.85 -1.05 4.09 -1.07 6.22 -1.07 c 22 0.08 28.71 6.45 37.16 24.93 C 279.43 371.38 286.24 393.73 292.9 413.62 Z" stroke-linecap="round"/>
</g>
		<g transform="matrix(0.5584 0 0 0.5584 -29.6731 54.2282)" id="Layer_1">
<linearGradient id="SVGID_67" gradientUnits="userSpaceOnUse" gradientTransform="matrix(1 0 0 1 0 0)" x1="222.27" y1="408.93" x2="313.29" y2="408.93">
<stop offset="12%" style="stop-color:rgb(1,1,1);stop-opacity: 0"/>
<stop offset="95%" style="stop-color:rgb(1,1,1);stop-opacity: 1"/>
</linearGradient>
<path style="stroke: none; stroke-width: 1; stroke-dasharray: none; stroke-linecap: butt; stroke-dashoffset: 0; stroke-linejoin: miter; stroke-miterlimit: 4; is-custom-font: none; font-file-url: none; fill: url(#SVGID_67); fill-rule: nonzero; opacity: 1;" transform=" translate(-267.7493, -408.8674)" d="M 292.9 413.62 c 3 9 5.78 18 8.57 27 l 10.18 33 c 1.08 3.49 2.17 7.18 1.35 10.74 s -4.3 6.78 -7.85 5.94 c -2.74 -0.64 -4.45 -3.3 -5.84 -5.75 c -16 -28.4 -26.72 -60 -46.38 -86 c -7.25 -9.59 -15.65 -18.34 -22 -28.58 s -10.45 -22.52 -8 -34.28 c 0.6 -2.86 1.78 -5.88 4.32 -7.32 c 1.85 -1.05 4.09 -1.07 6.22 -1.07 c 22 0.08 28.71 6.45 37.16 24.93 C 279.43 371.38 286.24 393.73 292.9 413.62 Z" stroke-linecap="round"/>
</g>
		<g transform="matrix(0.5584 0 0 0.5584 2.6127 105.9613)" id="Layer_1">
<path style="stroke: none; stroke-width: 1; stroke-dasharray: none; stroke-linecap: butt; stroke-dashoffset: 0; stroke-linejoin: miter; stroke-miterlimit: 4; is-custom-font: none; font-file-url: none; fill: rgb(44,44,44); fill-rule: nonzero; opacity: 1;" transform=" translate(-325.561, -501.5)" d="M 302 489.76 l 0.54 18.55 c 0.11 3.5 0.46 7.51 3.28 9.59 a 11.74 11.74 0 0 0 5.5 1.71 c 9.9 1.33 20 2.66 29.82 1 a 16 16 0 0 0 7.15 -2.62 a 2.22 2.22 0 0 0 0.72 -0.8 a 2.13 2.13 0 0 0 0.09 -1.15 c -0.49 -3.6 -3.49 -6.28 -6.47 -8.37 a 64.36 64.36 0 0 0 -11.37 -6.37 a 55.22 55.22 0 0 1 -7.74 -3.64 c -5.65 -3.59 -9 -9.78 -13.6 -14.67 a 4.65 4.65 0 0 0 -1.52 -1.2 c -1.77 -0.72 -4.12 0.94 -5.2 2.3 C 302 485.65 301.93 487.88 302 489.76 Z" stroke-linecap="round"/>
</g>
		<g transform="matrix(0.5584 0 0 0.5584 -72.1207 107.6639)" id="Layer_1">
<path style="stroke: none; stroke-width: 1; stroke-dasharray: none; stroke-linecap: butt; stroke-dashoffset: 0; stroke-linejoin: miter; stroke-miterlimit: 4; is-custom-font: none; font-file-url: none; fill: rgb(44,44,44); fill-rule: nonzero; opacity: 1;" transform=" translate(-191.737, -504.549)" d="M 169.38 503.3 c -0.78 1.12 -1.57 2.39 -1.36 3.73 a 4.55 4.55 0 0 0 1.29 2.28 c 2.38 2.59 5.72 4.05 8.82 5.71 c 5.91 3.17 11.33 7.35 17.66 9.54 s 14.17 1.93 18.79 -2.93 a 2.94 2.94 0 0 0 0.89 -1.51 c 0.16 -1.08 -0.75 -2 -1.63 -2.68 a 26.81 26.81 0 0 0 -6.79 -3.8 c -1.73 -0.66 -3.58 -1.17 -5 -2.4 a 10.8 10.8 0 0 1 -2.35 -3.48 a 48.85 48.85 0 0 1 -4.12 -13.19 c -0.45 -2.82 -0.69 -5.79 -2.17 -8.23 c -4 -6.53 -8 -1.29 -11.39 2 A 100.85 100.85 0 0 0 169.38 503.3 Z" stroke-linecap="round"/>
</g>
		<g transform="matrix(0.5584 0 0 0.5584 36.7818 -31.855)" id="Layer_1">
<path style="stroke: none; stroke-width: 1; stroke-dasharray: none; stroke-linecap: butt; stroke-dashoffset: 0; stroke-linejoin: miter; stroke-miterlimit: 4; is-custom-font: none; font-file-url: none; fill: rgb(196,142,142); fill-rule: nonzero; opacity: 1;" transform=" translate(-386.7468, -254.7148)" d="M 398.12 273.38 c -0.41 1.92 -0.92 4 -2.5 5.18 c -2.3 1.69 -5.59 0.52 -7.91 -1.13 c -7.12 -5.07 -10.62 -13.71 -13.56 -21.94 c -2.47 -6.9 -4.82 -14.07 -4.34 -21.39 a 3.7 3.7 0 0 1 0.74 -2.35 a 3.75 3.75 0 0 1 1.94 -0.93 a 30.06 30.06 0 0 1 28.5 8.5 c 4.2 4.45 2.66 7.7 1.47 13.41 Q 400.29 263.05 398.12 273.38 Z" stroke-linecap="round"/>
</g>
		<g transform="matrix(0.5584 0 0 0.5584 36.7818 -31.855)" id="Layer_1">
<linearGradient id="SVGID_68" gradientUnits="userSpaceOnUse" gradientTransform="matrix(1 0 0 1 0 0)" x1="403.88" y1="258.72" x2="376.02" y2="251.88">
<stop offset="12%" style="stop-color:rgb(1,1,1);stop-opacity: 0"/>
<stop offset="95%" style="stop-color:rgb(1,1,1);stop-opacity: 1"/>
</linearGradient>
<path style="stroke: none; stroke-width: 1; stroke-dasharray: none; stroke-linecap: butt; stroke-dashoffset: 0; stroke-linejoin: miter; stroke-miterlimit: 4; is-custom-font: none; font-file-url: none; fill: url(#SVGID_68); fill-rule: nonzero; opacity: 1;" transform=" translate(-386.7468, -254.7148)" d="M 398.12 273.38 c -0.41 1.92 -0.92 4 -2.5 5.18 c -2.3 1.69 -5.59 0.52 -7.91 -1.13 c -7.12 -5.07 -10.62 -13.71 -13.56 -21.94 c -2.47 -6.9 -4.82 -14.07 -4.34 -21.39 a 3.7 3.7 0 0 1 0.74 -2.35 a 3.75 3.75 0 0 1 1.94 -0.93 a 30.06 30.06 0 0 1 28.5 8.5 c 4.2 4.45 2.66 7.7 1.47 13.41 Q 400.29 263.05 398.12 273.38 Z" stroke-linecap="round"/>
</g>
		<g transform="matrix(0.5584 0 0 0.5584 25.2233 -31.9477)" id="Layer_1">
<path style="stroke: none; stroke-width: 1; stroke-dasharray: none; stroke-linecap: butt; stroke-dashoffset: 0; stroke-linejoin: miter; stroke-miterlimit: 4; is-custom-font: none; font-file-url: none; fill: rgb(196,142,142); fill-rule: nonzero; opacity: 1;" transform=" translate(-366.0501, -254.552)" d="M 347.07 217.67 c -2.48 23.17 -7.39 55.31 -11 78.34 c -0.73 4.75 -1.58 9.64 -0.44 14.31 c 1.64 6.74 11.5 3.19 17.91 5.85 s 13.52 3.1 20.46 3.05 c 4 0 8.23 -0.29 11.37 -2.72 c 5 -3.83 5.06 -11.14 4.73 -17.39 c -0.65 -12.46 -1.17 -25 0.69 -37.37 c 2.39 -15.8 8.68 -31.69 5.22 -47.29 a 21 21 0 0 0 -3.31 -8 a 28.19 28.19 0 0 0 -4.14 -4.25 l -7.91 -7.07 c -2.34 -2.08 -4.8 -4.24 -7.84 -5 c -5.06 -1.26 -14 2.5 -18.19 5.69 C 348.74 200.39 347.79 210.9 347.07 217.67 Z" stroke-linecap="round"/>
</g>
		<g transform="matrix(0.5584 0 0 0.5584 28.4477 -50.2588)" id="Layer_1">
<linearGradient id="SVGID_69" gradientUnits="userSpaceOnUse" gradientTransform="matrix(1 0 0 1 0 0)" x1="361.99" y1="229.23" x2="441.45" y2="177.1">
<stop offset="12%" style="stop-color:rgb(1,1,1);stop-opacity: 0"/>
<stop offset="95%" style="stop-color:rgb(1,1,1);stop-opacity: 1"/>
</linearGradient>
<path style="stroke: none; stroke-width: 1; stroke-dasharray: none; stroke-linecap: butt; stroke-dashoffset: 0; stroke-linejoin: miter; stroke-miterlimit: 4; is-custom-font: none; font-file-url: none; fill: url(#SVGID_69); fill-rule: nonzero; opacity: 1;" transform=" translate(-371.8233, -221.7593)" d="M 361.33 202.29 a 20.42 20.42 0 0 1 4.35 2.8 l 15.08 11.63 a 5.79 5.79 0 0 1 1.57 1.55 a 5.62 5.62 0 0 1 0.64 2.46 c 0.44 5 -0.08 10 0.4 15 s 2.12 10.15 6 13.35 c 2.45 -2.16 2.5 -5.89 2.35 -9.15 q -0.63 -13.41 -1.56 -26.81 a 4.71 4.71 0 0 0 -3.26 -5 l -25.86 -13 a 3.22 3.22 0 0 0 -4.06 0.08 c -2.11 1.31 -7.23 3 -4.13 5.1 C 354.29 201.21 359.6 202.29 361.33 202.29 Z" stroke-linecap="round"/>
</g>
		<g transform="matrix(0.5584 0 0 0.5584 15.8881 -23.9529)" id="Layer_1">
<linearGradient id="SVGID_70" gradientUnits="userSpaceOnUse" gradientTransform="matrix(1 0 0 1 0 0)" x1="376.44" y1="270.31" x2="237.84" y2="262.22">
<stop offset="12%" style="stop-color:rgb(1,1,1);stop-opacity: 0"/>
<stop offset="95%" style="stop-color:rgb(1,1,1);stop-opacity: 1"/>
</linearGradient>
<path style="stroke: none; stroke-width: 1; stroke-dasharray: none; stroke-linecap: butt; stroke-dashoffset: 0; stroke-linejoin: miter; stroke-miterlimit: 4; is-custom-font: none; font-file-url: none; fill: url(#SVGID_70); fill-rule: nonzero; opacity: 1;" transform=" translate(-349.3326, -268.8668)" d="M 358.05 261.15 C 360.31 255.51 363.1 250 364 244 a 28.4 28.4 0 0 0 -7.54 -23.42 a 217 217 0 0 0 -15.7 42.08 a 193.93 193.93 0 0 0 -6.29 43.24 a 13.44 13.44 0 0 0 0.91 6.4 c 1.39 2.81 4.58 4.38 7.7 4.67 c 6.76 0.64 8.4 -0.18 8.51 -5.9 s -0.88 -11.23 -0.62 -16.91 A 102 102 0 0 1 358.05 261.15 Z" stroke-linecap="round"/>
</g>
		<g transform="matrix(0.5584 0 0 0.5584 43.0458 -50.791)" id="Layer_1">
<linearGradient id="SVGID_71" gradientUnits="userSpaceOnUse" gradientTransform="matrix(1 0 0 1 0 0)" x1="387.59" y1="220.83" x2="408.37" y2="220.83">
<stop offset="0%" style="stop-color:rgb(229,198,214);stop-opacity: 1"/>
<stop offset="42%" style="stop-color:rgb(234,212,208);stop-opacity: 1"/>
<stop offset="100%" style="stop-color:rgb(240,233,203);stop-opacity: 1"/>
</linearGradient>
<path style="stroke: none; stroke-width: 1; stroke-dasharray: none; stroke-linecap: butt; stroke-dashoffset: 0; stroke-linejoin: miter; stroke-miterlimit: 4; is-custom-font: none; font-file-url: none; fill: url(#SVGID_71); fill-rule: nonzero; opacity: 1;" transform=" translate(-397.963, -220.807)" d="M 393.9 250.16 c 2.26 1.52 5.15 1.77 7.62 2.92 c 1.9 0.9 4.19 2.32 5.86 1 s 0.83 -4 -0.09 -6 c -6.85 -14.72 -5.56 -31.76 -8.33 -47.76 c -0.68 -3.95 -1.7 -8 -4.31 -11.09 c -6.79 -7.95 -7 7.62 -7.06 11.08 c 0 4.81 0.31 9.54 0.7 14.33 C 389 223.65 385.23 244.33 393.9 250.16 Z" stroke-linecap="round"/>
</g>
		<g transform="matrix(0.5584 0 0 0.5584 40.6962 -64.0302)" id="Layer_1">
<linearGradient id="SVGID_72" gradientUnits="userSpaceOnUse" gradientTransform="matrix(1 0 0 1 0 0)" x1="402.08" y1="197.44" x2="361.9" y2="195.42">
<stop offset="12%" style="stop-color:rgb(1,1,1);stop-opacity: 0"/>
<stop offset="95%" style="stop-color:rgb(1,1,1);stop-opacity: 1"/>
</linearGradient>
<path style="stroke: none; stroke-width: 1; stroke-dasharray: none; stroke-linecap: butt; stroke-dashoffset: 0; stroke-linejoin: miter; stroke-miterlimit: 4; is-custom-font: none; font-file-url: none; fill: url(#SVGID_72); fill-rule: nonzero; opacity: 1;" transform=" translate(-393.755, -197.0977)" d="M 395.15 195.86 c -0.24 1.28 -0.63 2.68 0 3.84 a 7.67 7.67 0 0 0 0.79 1.08 a 6.33 6.33 0 0 1 1.21 2.77 c -0.16 0.28 -0.58 0.18 -0.86 0 a 20.82 20.82 0 0 1 -5.93 -4.58 a 6.29 6.29 0 0 0 1 -3.12 a 10.4 10.4 0 0 1 0.27 -3.35 c 0.43 -1 2.07 -2.59 3.22 -1.83 S 395.34 194.82 395.15 195.86 Z" stroke-linecap="round"/>
</g>
		<g transform="matrix(0.5584 0 0 0.5584 36.1132 -75.1686)" id="Layer_1">
<linearGradient id="SVGID_73" gradientUnits="userSpaceOnUse" gradientTransform="matrix(1 0 0 1 0 0)" x1="366.75" y1="177.16" x2="404.38" y2="177.16">
<stop offset="0%" style="stop-color:rgb(229,198,214);stop-opacity: 1"/>
<stop offset="42%" style="stop-color:rgb(234,212,208);stop-opacity: 1"/>
<stop offset="100%" style="stop-color:rgb(240,233,203);stop-opacity: 1"/>
</linearGradient>
<path style="stroke: none; stroke-width: 1; stroke-dasharray: none; stroke-linecap: butt; stroke-dashoffset: 0; stroke-linejoin: miter; stroke-miterlimit: 4; is-custom-font: none; font-file-url: none; fill: url(#SVGID_73); fill-rule: nonzero; opacity: 1;" transform=" translate(-385.5498, -177.1541)" d="M 402.06 165.3 a 13.5 13.5 0 0 1 1.93 2.54 c 1.11 2.16 -1.19 6.85 -0.54 9.27 c 0.39 1.48 0.76 7.46 0.92 9 c 0.27 2.52 -8.54 3.3 -10.37 4.59 c -3.59 2.54 -2 5.67 -3.49 10.31 c -0.5 1.51 -0.91 3.17 -2 4.19 c -1.31 1.27 -3.2 1.15 -4.84 0.72 c -5.56 -1.46 -10.53 -5.88 -13.28 -11.84 a 40.87 40.87 0 0 1 -3.2 -14.7 c -0.29 -5 -1.06 -11.12 0.38 -15.83 c 1.95 -6.42 7.22 -10.77 12.5 -13.37 c 3.65 -1.78 12.23 -3.75 15.41 0.24 c 1.16 1.45 1.26 5.1 1.95 6.95 A 26.05 26.05 0 0 0 402.06 165.3 Z" stroke-linecap="round"/>
</g>
		<g transform="matrix(0.5584 0 0 0.5584 34.3123 -66.6379)" id="Layer_1">
<linearGradient id="SVGID_74" gradientUnits="userSpaceOnUse" gradientTransform="matrix(1 0 0 1 0 0)" x1="385.61" y1="187.42" x2="365.8" y2="215.6">
<stop offset="12%" style="stop-color:rgb(1,1,1);stop-opacity: 0"/>
<stop offset="95%" style="stop-color:rgb(1,1,1);stop-opacity: 1"/>
</linearGradient>
<path style="stroke: none; stroke-width: 1; stroke-dasharray: none; stroke-linecap: butt; stroke-dashoffset: 0; stroke-linejoin: miter; stroke-miterlimit: 4; is-custom-font: none; font-file-url: none; fill: url(#SVGID_74); fill-rule: nonzero; opacity: 1;" transform=" translate(-382.324, -192.428)" d="M 389.19 194.8 a 3.65 3.65 0 0 1 1.32 0.81 c 0.8 0.88 0.55 2.25 0.25 3.41 a 1.48 1.48 0 0 1 -0.46 0.86 a 1.35 1.35 0 0 1 -1.18 0 a 19.3 19.3 0 0 1 -5.93 -3.36 c -2.08 -1.58 -4.1 -3.25 -6 -5 a 14.76 14.76 0 0 1 -2.77 -3.14 c -0.54 -0.91 -1.72 -4.08 0.39 -3.46 c 1.34 0.38 3.28 3 4.44 3.91 A 47.94 47.94 0 0 0 389.19 194.8 Z" stroke-linecap="round"/>
</g>
		<g transform="matrix(0.5584 0 0 0.5584 19.0455 -98.6559)" id="Layer_1">
<path style="stroke: none; stroke-width: 1; stroke-dasharray: none; stroke-linecap: butt; stroke-dashoffset: 0; stroke-linejoin: miter; stroke-miterlimit: 4; is-custom-font: none; font-file-url: none; fill: rgb(196,142,142); fill-rule: nonzero; opacity: 1;" transform=" translate(-354.9873, -135.0962)" d="M 362.85 104.25 a 48.25 48.25 0 0 0 -6.27 -4.84 a 5.48 5.48 0 0 0 -2.37 -1 a 4.53 4.53 0 0 0 -2.85 0.95 c -4.12 2.8 -5.72 8 -7 12.79 q -6.48 23.48 -12.95 47 c -0.41 1.5 -0.81 3.17 -0.08 4.54 a 5.86 5.86 0 0 0 2.55 2.16 a 49.48 49.48 0 0 0 27.38 5.78 a 8.65 8.65 0 0 0 4.63 -1.36 c 1.6 -1.21 1.06 -4.13 1.63 -6.06 c 2.6 -8.75 6.4 -16.63 9 -25.38 c 2 -6.84 4 -14.43 1 -20.91 c -2.31 -5 -7.11 -8.24 -11.74 -11.18 l 0.38 3.72" stroke-linecap="round"/>
</g>
		<g transform="matrix(0.5584 0 0 0.5584 25.6001 -113.3561)" id="Layer_1">
<linearGradient id="SVGID_75" gradientUnits="userSpaceOnUse" gradientTransform="matrix(0.9917 -0.1286 0.1286 0.9917 -135.03 30.41)" x1="481.58" y1="142.26" x2="493.74" y2="142.26">
<stop offset="0%" style="stop-color:rgb(229,198,214);stop-opacity: 1"/>
<stop offset="42%" style="stop-color:rgb(234,212,208);stop-opacity: 1"/>
<stop offset="100%" style="stop-color:rgb(240,233,203);stop-opacity: 1"/>
</linearGradient>
<path style="stroke: none; stroke-width: 1; stroke-dasharray: none; stroke-linecap: butt; stroke-dashoffset: 0; stroke-linejoin: miter; stroke-miterlimit: 4; is-custom-font: none; font-file-url: none; fill: url(#SVGID_75); fill-rule: nonzero; opacity: 1;" transform=" translate(-366.7229, -108.7707)" d="M 370.58 112.12 c 0 1 0.16 1.94 0.14 2.92 a 3.73 3.73 0 0 1 -1 2.67 a 3.2 3.2 0 0 1 -2.21 0.78 a 5.48 5.48 0 0 1 -3.92 -1.88 a 10.15 10.15 0 0 1 -2.09 -3.91 a 17.65 17.65 0 0 1 -0.34 -9 a 6.35 6.35 0 0 1 2.28 -4 c 2 -1.32 4.77 -0.49 6.4 1.22 c 1.17 1.23 3.1 4.34 2.85 6.14 c -0.1 0.81 -1 1.39 -1.4 2.1 A 6.35 6.35 0 0 0 370.58 112.12 Z" stroke-linecap="round"/>
</g>
		<g transform="matrix(0.5584 0 0 0.5584 26.425 -114.9257)" id="Layer_1">
<linearGradient id="SVGID_76" gradientUnits="userSpaceOnUse" gradientTransform="matrix(0.9917 -0.1286 0.1286 0.9917 -135.03 30.41)" x1="485.21" y1="143.97" x2="498.17" y2="124.57">
<stop offset="12%" style="stop-color:rgb(1,1,1);stop-opacity: 0"/>
<stop offset="95%" style="stop-color:rgb(1,1,1);stop-opacity: 1"/>
</linearGradient>
<path style="stroke: none; stroke-width: 1; stroke-dasharray: none; stroke-linecap: butt; stroke-dashoffset: 0; stroke-linejoin: miter; stroke-miterlimit: 4; is-custom-font: none; font-file-url: none; fill: url(#SVGID_76); fill-rule: nonzero; opacity: 1;" transform=" translate(-368.2001, -105.9597)" d="M 366.42 110 a 5 5 0 0 0 1.56 1.28 a 2.19 2.19 0 0 0 1.95 0 c 0.72 -0.39 1.05 -1.23 1.5 -1.91 c 0.83 -1.27 2.27 -2.32 2.27 -3.84 a 3 3 0 0 0 -1.11 -2.17 a 7.7 7.7 0 0 0 -2.2 -1.2 a 35.8 35.8 0 0 0 -5 -1.56 c -3.2 -0.74 -3 0.75 -2.16 3.35 A 16.77 16.77 0 0 0 366.42 110 Z" stroke-linecap="round"/>
</g>
		<g transform="matrix(0.5584 0 0 0.5584 -51.8114 -53.1792)" id="Layer_1">
<path style="stroke: none; stroke-width: 1; stroke-dasharray: none; stroke-linecap: butt; stroke-dashoffset: 0; stroke-linejoin: miter; stroke-miterlimit: 4; is-custom-font: none; font-file-url: none; fill: rgb(44,44,44); fill-rule: nonzero; opacity: 1;" transform=" translate(-228.1068, -216.5327)" d="M 262.57 156.27 c -9 -2.39 -19.13 1.12 -25.55 7.93 c -5.93 6.29 -9.06 15.05 -15.83 20.41 c -7.9 6.25 -19.07 6.59 -27.61 11.94 c -6.58 4.13 -11.09 11 -13.85 18.26 c -2.47 6.53 -3.58 14.22 0 20.24 c 1.41 2.4 3.52 4.46 4.23 7.15 c 1 3.69 -0.92 7.44 -1.88 11.14 a 23.63 23.63 0 0 0 6 22.24 a 6.3 6.3 0 0 0 3.09 1.93 a 6.16 6.16 0 0 0 3.75 -0.8 c 14.95 -7.24 17.85 -29.34 32.86 -36.46 c 3.75 -1.79 8 -2.47 11.45 -4.86 c 3.06 -2.15 5.1 -5.48 6.64 -8.89 c 2.67 -5.9 4.14 -12.37 7.54 -17.88 a 53.41 53.41 0 0 1 6.2 -7.79 c 3.82 -4.19 7.77 -8.29 11.35 -12.7 c 2.7 -3.33 7.24 -8.11 7.74 -12.58 C 279.69 166.85 270.14 158.27 262.57 156.27 Z" stroke-linecap="round"/>
</g>
		<g transform="matrix(0.5584 0 0 0.5584 -51.8072 -53.1822)" id="Layer_1">
<linearGradient id="SVGID_77" gradientUnits="userSpaceOnUse" gradientTransform="matrix(1 0 0 1 0 0)" x1="217.82" y1="208.72" x2="279.85" y2="258.88">
<stop offset="12%" style="stop-color:rgb(1,1,1);stop-opacity: 0"/>
<stop offset="95%" style="stop-color:rgb(1,1,1);stop-opacity: 1"/>
</linearGradient>
<path style="stroke: none; stroke-width: 1; stroke-dasharray: none; stroke-linecap: butt; stroke-dashoffset: 0; stroke-linejoin: miter; stroke-miterlimit: 4; is-custom-font: none; font-file-url: none; fill: url(#SVGID_77); fill-rule: nonzero; opacity: 1;" transform=" translate(-228.1144, -216.5273)" d="M 278.72 175.54 c -0.5 4.48 -5.06 9.27 -7.74 12.6 c -3.6 4.41 -7.55 8.51 -11.38 12.68 a 57.11 57.11 0 0 0 -6 7.51 a 1.48 1.48 0 0 0 -0.19 0.27 c -3.41 5.52 -4.86 12 -7.54 17.89 c -1.54 3.41 -3.57 6.74 -6.63 8.89 c -3.41 2.41 -7.7 3.1 -11.46 4.86 c -15 7.13 -17.92 29.23 -32.86 36.47 a 9.5 9.5 0 0 1 -1.12 0.5 a 5.24 5.24 0 0 1 -2.64 0.31 a 6.27 6.27 0 0 1 -3.1 -2 a 23.62 23.62 0 0 1 -6 -22.22 c 1 -3.71 2.84 -7.47 1.88 -11.14 c -0.73 -2.69 -2.83 -4.75 -4.25 -7.17 c -3.53 -6 -2.41 -13.67 0 -20.23 c 2.76 -7.27 7.28 -14.13 13.86 -18.27 c 8.51 -5.32 19.7 -5.67 27.59 -11.91 c 6.78 -5.37 9.92 -14.14 15.86 -20.42 c 6.39 -6.82 16.47 -10.31 25.55 -7.93 C 270.14 158.26 279.67 166.84 278.72 175.54 Z" stroke-linecap="round"/>
</g>
		<g transform="matrix(0.5584 0 0 0.5584 -54.5026 -41.1275)" id="Layer_1">
<linearGradient id="SVGID_78" gradientUnits="userSpaceOnUse" gradientTransform="matrix(1 0 0 1 0 0)" x1="192.98" y1="238.11" x2="253.62" y2="238.11">
<stop offset="12%" style="stop-color:rgb(1,1,1);stop-opacity: 0"/>
<stop offset="95%" style="stop-color:rgb(1,1,1);stop-opacity: 1"/>
</linearGradient>
<path style="stroke: none; stroke-width: 1; stroke-dasharray: none; stroke-linecap: butt; stroke-dashoffset: 0; stroke-linejoin: miter; stroke-miterlimit: 4; is-custom-font: none; font-file-url: none; fill: url(#SVGID_78); fill-rule: nonzero; opacity: 1;" transform=" translate(-223.2861, -238.1117)" d="M 253.62 208.33 a 1.48 1.48 0 0 0 -0.19 0.27 c -3.41 5.52 -4.86 12 -7.54 17.89 c -1.54 3.41 -3.57 6.74 -6.63 8.89 c -3.41 2.41 -7.7 3.1 -11.46 4.86 c -15 7.13 -17.92 29.23 -32.86 36.47 a 9.5 9.5 0 0 1 -1.12 0.5 a 15.46 15.46 0 0 1 -0.72 -7.24 a 47.24 47.24 0 0 1 23.56 -36.24 c 3.64 -2 7.58 -3.6 10.65 -6.4 c 4.79 -4.37 6.62 -11 9.31 -16.89 c 3.37 -7.55 11.76 -18 16 -5.9 A 28.07 28.07 0 0 1 253.62 208.33 Z" stroke-linecap="round"/>
</g>
		<g transform="matrix(0.5584 0 0 0.5584 -31.3072 -62.2459)" id="Layer_1">
<linearGradient id="SVGID_79" gradientUnits="userSpaceOnUse" gradientTransform="matrix(1 0 0 1 0 0)" x1="247.91" y1="200.3" x2="281.72" y2="200.3">
<stop offset="0%" style="stop-color:rgb(229,198,214);stop-opacity: 1"/>
<stop offset="42%" style="stop-color:rgb(234,212,208);stop-opacity: 1"/>
<stop offset="100%" style="stop-color:rgb(240,233,203);stop-opacity: 1"/>
</linearGradient>
<path style="stroke: none; stroke-width: 1; stroke-dasharray: none; stroke-linecap: butt; stroke-dashoffset: 0; stroke-linejoin: miter; stroke-miterlimit: 4; is-custom-font: none; font-file-url: none; fill: url(#SVGID_79); fill-rule: nonzero; opacity: 1;" transform=" translate(-264.8206, -200.2947)" d="M 275 175.45 c 0.74 2.29 0.81 5 2.51 6.65 c 1.45 1.43 4 2.14 4.19 4.16 a 6.1 6.1 0 0 1 -0.64 2.51 c -1.33 3.74 0.79 11.24 -1 14.76 c -1.37 2.63 -10.79 6.15 -12.41 8.63 c -3.17 4.87 0.36 16.14 -1.88 16.18 c -3 0.06 -13.8 2.94 -16.18 1.08 c -3.2 -2.5 -0.76 -13.9 -0.74 -18 a 130.25 130.25 0 0 1 1.89 -21.59 c 0.87 -5.08 2.14 -10.31 5.41 -14.3 C 260.05 170.76 272.36 167.27 275 175.45 Z" stroke-linecap="round"/>
</g>
		<g transform="matrix(0.5584 0 0 0.5584 -39.4805 -67.8142)" id="Layer_1">
<path style="stroke: none; stroke-width: 1; stroke-dasharray: none; stroke-linecap: butt; stroke-dashoffset: 0; stroke-linejoin: miter; stroke-miterlimit: 4; is-custom-font: none; font-file-url: none; fill: rgb(44,44,44); fill-rule: nonzero; opacity: 1;" transform=" translate(-250.1855, -190.3236)" d="M 267 174.25 c -0.79 3.36 0.5 6.88 0.05 10.3 c -1 7.66 -7.8 12.65 -13.4 12.59 c -11.62 -0.1 -18.49 20.42 -21.3 24 c -9.71 -16.72 0 -29.63 2 -36.49 C 235.9 179 247 167 251.89 163.8 c 4.5 -3 11 -5.09 16.49 -4 c 3.86 0.75 4.88 8.07 2.9 9.14 A 8.34 8.34 0 0 0 267 174.25 Z" stroke-linecap="round"/>
</g>
		<g transform="matrix(0.5584 0 0 0.5584 -38.341 -15.0357)" id="Layer_1">
<path style="stroke: none; stroke-width: 1; stroke-dasharray: none; stroke-linecap: butt; stroke-dashoffset: 0; stroke-linejoin: miter; stroke-miterlimit: 4; is-custom-font: none; font-file-url: none; fill: rgb(196,142,142); fill-rule: nonzero; opacity: 1;" transform=" translate(-252.2265, -284.8358)" d="M 283.89 283.26 c -2.8 7.17 -5.59 14.29 -8.35 21.45 c -3.14 8 -5.44 29.31 -9.62 36.82 c -2.57 4.6 -24.94 6.66 -35.74 1.26 a 11.64 11.64 0 0 1 -4.1 -3.06 a 24.25 24.25 0 0 1 -5.67 -15.82 c 0.15 -9 3.18 -17.7 5.13 -26.47 a 138.65 138.65 0 0 0 3.11 -32.07 v -2.18 c -0.08 -7 -0.19 -14.14 2.56 -20.54 c 5.94 -13.63 25.71 -26.16 39 -14.17 C 274.62 232.43 285.46 279.24 283.89 283.26 Z" stroke-linecap="round"/>
</g>
		<g transform="matrix(0.5584 0 0 0.5584 -50.1317 -6.6433)" id="Layer_1">
<linearGradient id="SVGID_80" gradientUnits="userSpaceOnUse" gradientTransform="matrix(1 0 0 1 0 0)" x1="250.87" y1="300.54" x2="163.41" y2="296.98">
<stop offset="12%" style="stop-color:rgb(1,1,1);stop-opacity: 0"/>
<stop offset="95%" style="stop-color:rgb(1,1,1);stop-opacity: 1"/>
</linearGradient>
<path style="stroke: none; stroke-width: 1; stroke-dasharray: none; stroke-linecap: butt; stroke-dashoffset: 0; stroke-linejoin: miter; stroke-miterlimit: 4; is-custom-font: none; font-file-url: none; fill: url(#SVGID_80); fill-rule: nonzero; opacity: 1;" transform=" translate(-231.1115, -299.8625)" d="M 240.14 267.4 c -1.15 6.25 -0.65 12.64 -1.38 18.93 c -1.26 11.11 -6 21.6 -7.2 32.71 a 56.2 56.2 0 0 0 0.65 15.86 c 0.38 2.15 0.8 4.52 -0.34 6.4 a 4.59 4.59 0 0 1 -1.69 1.49 a 11.64 11.64 0 0 1 -4.1 -3.06 a 24.25 24.25 0 0 1 -5.67 -15.82 c 0.15 -9 3.18 -17.7 5.13 -26.47 a 138.65 138.65 0 0 0 3.11 -32.07 v -2.18 a 23.45 23.45 0 0 1 2 -2.38 c 1.72 -1.87 3.91 -3.64 6.47 -3.83 C 244.89 256.29 240.83 263.69 240.14 267.4 Z" stroke-linecap="round"/>
</g>
		<g transform="matrix(0.5584 0 0 0.5584 29.1495 -123.3936)" id="Layer_1">
<linearGradient id="SVGID_81" gradientUnits="userSpaceOnUse" gradientTransform="matrix(0.9917 -0.1286 0.1286 0.9917 -135.03 30.41)" x1="483.91" y1="125.49" x2="508.35" y2="125.49">
<stop offset="0%" style="stop-color:rgb(229,198,214);stop-opacity: 1"/>
<stop offset="42%" style="stop-color:rgb(234,212,208);stop-opacity: 1"/>
<stop offset="100%" style="stop-color:rgb(240,233,203);stop-opacity: 1"/>
</linearGradient>
<path style="stroke: none; stroke-width: 1; stroke-dasharray: none; stroke-linecap: butt; stroke-dashoffset: 0; stroke-linejoin: miter; stroke-miterlimit: 4; is-custom-font: none; font-file-url: none; fill: url(#SVGID_81); fill-rule: nonzero; opacity: 1;" transform=" translate(-373.0794, -90.7971)" d="M 377.74 106.63 a 13.33 13.33 0 0 0 6 -7.55 A 28.44 28.44 0 0 0 385 89.32 a 28.34 28.34 0 0 0 -1.61 -9.77 a 9.57 9.57 0 0 0 -3 -4.34 c -2.4 -1.76 -5.79 -1.64 -8.49 -0.39 a 20.92 20.92 0 0 0 -6.76 5.71 a 16.91 16.91 0 0 0 -3.22 4.94 a 15.26 15.26 0 0 0 -0.78 5.42 c 0 5 1.08 10.33 5 13.74 C 369.38 107.48 373.7 108.8 377.74 106.63 Z" stroke-linecap="round"/>
</g>
		<g transform="matrix(0.5584 0 0 0.5584 28.1356 -127.4902)" id="Layer_1">
<path style="stroke: none; stroke-width: 1; stroke-dasharray: none; stroke-linecap: butt; stroke-dashoffset: 0; stroke-linejoin: miter; stroke-miterlimit: 4; is-custom-font: none; font-file-url: none; fill: rgb(44,44,44); fill-rule: nonzero; opacity: 1;" transform=" translate(-371.264, -83.4616)" d="M 384.28 71.16 a 7.65 7.65 0 0 1 1.55 6.27 a 3.26 3.26 0 0 1 -0.68 1.54 c -0.84 0.93 -2.28 0.89 -3.5 1.21 c -1.51 0.39 -2.77 1.41 -4.19 2 s -3.28 0.82 -4.39 -0.28 a 3 3 0 0 1 -1.86 2.34 a 12.18 12.18 0 0 0 -2.75 1.5 c -1.31 1.2 -1.5 3.16 -1.6 4.94 c -0.64 -0.76 -1.89 -1.51 -2.46 -0.7 a 1.43 1.43 0 0 0 -0.2 0.91 c 0 1.48 0.43 2.93 0.59 4.41 a 5.82 5.82 0 0 1 -0.9 4.23 a 2.83 2.83 0 0 1 -3.92 0.63 a 4.33 4.33 0 0 1 -1 -1.71 c -2.26 -6.14 -3.31 -13 -1.48 -19.25 s 7 -11.86 13.44 -12.85 c 2.69 -0.42 4.7 0.42 7.12 1.43 C 380.33 68.77 382.65 69.17 384.28 71.16 Z" stroke-linecap="round"/>
</g>
		<g transform="matrix(0.5584 0 0 0.5584 28.1356 -127.4902)" id="Layer_1">
<linearGradient id="SVGID_82" gradientUnits="userSpaceOnUse" gradientTransform="matrix(1 0 0 1 0 0)" x1="356.59" y1="83.52" x2="385.97" y2="83.52">
<stop offset="12%" style="stop-color:rgb(1,1,1);stop-opacity: 0"/>
<stop offset="95%" style="stop-color:rgb(1,1,1);stop-opacity: 1"/>
</linearGradient>
<path style="stroke: none; stroke-width: 1; stroke-dasharray: none; stroke-linecap: butt; stroke-dashoffset: 0; stroke-linejoin: miter; stroke-miterlimit: 4; is-custom-font: none; font-file-url: none; fill: url(#SVGID_82); fill-rule: nonzero; opacity: 1;" transform=" translate(-371.264, -83.4616)" d="M 384.28 71.16 a 7.65 7.65 0 0 1 1.55 6.27 a 3.26 3.26 0 0 1 -0.68 1.54 c -0.84 0.93 -2.28 0.89 -3.5 1.21 c -1.51 0.39 -2.77 1.41 -4.19 2 s -3.28 0.82 -4.39 -0.28 a 3 3 0 0 1 -1.86 2.34 a 12.18 12.18 0 0 0 -2.75 1.5 c -1.31 1.2 -1.5 3.16 -1.6 4.94 c -0.64 -0.76 -1.89 -1.51 -2.46 -0.7 a 1.43 1.43 0 0 0 -0.2 0.91 c 0 1.48 0.43 2.93 0.59 4.41 a 5.82 5.82 0 0 1 -0.9 4.23 a 2.83 2.83 0 0 1 -3.92 0.63 a 4.33 4.33 0 0 1 -1 -1.71 c -2.26 -6.14 -3.31 -13 -1.48 -19.25 s 7 -11.86 13.44 -12.85 c 2.69 -0.42 4.7 0.42 7.12 1.43 C 380.33 68.77 382.65 69.17 384.28 71.16 Z" stroke-linecap="round"/>
</g>
		<g transform="matrix(0.5584 0 0 0.5584 14.4983 -127.8233)" id="Layer_1">
<path style="stroke: none; stroke-width: 1; stroke-dasharray: none; stroke-linecap: butt; stroke-dashoffset: 0; stroke-linejoin: miter; stroke-miterlimit: 4; is-custom-font: none; font-file-url: none; fill: rgb(44,44,44); fill-rule: nonzero; opacity: 1;" transform=" translate(-346.8435, -82.8643)" d="M 349.12 73.55 c -3 1.27 -5 4.07 -6.41 7 s -2.2 6.09 -3.56 9 a 6.07 6.07 0 0 1 -2.79 3.27 c 1.94 -1 4.24 -1 6.33 -1.62 c 5.34 -1.6 9.24 -7.1 12.49 -11.32 c 1.13 -1.47 3.14 -4 1.57 -5.79 C 354.84 72 351.37 73.26 349.12 73.55 Z" stroke-linecap="round"/>
</g>
		<g transform="matrix(0.5584 0 0 0.5584 18.0831 -137.3275)" id="Layer_1">
<path style="stroke: none; stroke-width: 1; stroke-dasharray: none; stroke-linecap: butt; stroke-dashoffset: 0; stroke-linejoin: miter; stroke-miterlimit: 4; is-custom-font: none; font-file-url: none; fill: rgb(44,44,44); fill-rule: nonzero; opacity: 1;" transform=" translate(-353.2628, -65.8449)" d="M 348.36 67.17 a 40.09 40.09 0 0 1 -7.23 3.08 c 6.47 1.17 13.36 1.55 19.43 -1 a 8.29 8.29 0 0 0 4.34 -3.42 c 0.68 -1.28 0.75 -3.52 -0.36 -4.63 s -3.15 -0.59 -4.61 -0.16 C 355.7 62.29 352.17 65.08 348.36 67.17 Z" stroke-linecap="round"/>
</g>
		<g transform="matrix(0.5584 0 0 0.5584 14.4983 -127.8233)" id="Layer_1">
<linearGradient id="SVGID_83" gradientUnits="userSpaceOnUse" gradientTransform="matrix(1 0 0 1 0 0)" x1="336.36" y1="82.88" x2="357.33" y2="82.88">
<stop offset="12%" style="stop-color:rgb(1,1,1);stop-opacity: 0"/>
<stop offset="95%" style="stop-color:rgb(1,1,1);stop-opacity: 1"/>
</linearGradient>
<path style="stroke: none; stroke-width: 1; stroke-dasharray: none; stroke-linecap: butt; stroke-dashoffset: 0; stroke-linejoin: miter; stroke-miterlimit: 4; is-custom-font: none; font-file-url: none; fill: url(#SVGID_83); fill-rule: nonzero; opacity: 1;" transform=" translate(-346.8435, -82.8643)" d="M 349.12 73.55 c -3 1.27 -5 4.07 -6.41 7 s -2.2 6.09 -3.56 9 a 6.07 6.07 0 0 1 -2.79 3.27 c 1.94 -1 4.24 -1 6.33 -1.62 c 5.34 -1.6 9.24 -7.1 12.49 -11.32 c 1.13 -1.47 3.14 -4 1.57 -5.79 C 354.84 72 351.37 73.26 349.12 73.55 Z" stroke-linecap="round"/>
</g>
		<g transform="matrix(0.5584 0 0 0.5584 18.0831 -137.3275)" id="Layer_1">
<linearGradient id="SVGID_84" gradientUnits="userSpaceOnUse" gradientTransform="matrix(1 0 0 1 0 0)" x1="341.13" y1="65.83" x2="365.4" y2="65.83">
<stop offset="12%" style="stop-color:rgb(1,1,1);stop-opacity: 0"/>
<stop offset="95%" style="stop-color:rgb(1,1,1);stop-opacity: 1"/>
</linearGradient>
<path style="stroke: none; stroke-width: 1; stroke-dasharray: none; stroke-linecap: butt; stroke-dashoffset: 0; stroke-linejoin: miter; stroke-miterlimit: 4; is-custom-font: none; font-file-url: none; fill: url(#SVGID_84); fill-rule: nonzero; opacity: 1;" transform=" translate(-353.2628, -65.8449)" d="M 348.36 67.17 a 40.09 40.09 0 0 1 -7.23 3.08 c 6.47 1.17 13.36 1.55 19.43 -1 a 8.29 8.29 0 0 0 4.34 -3.42 c 0.68 -1.28 0.75 -3.52 -0.36 -4.63 s -3.15 -0.59 -4.61 -0.16 C 355.7 62.29 352.17 65.08 348.36 67.17 Z" stroke-linecap="round"/>
</g>
		<g transform="matrix(0.5584 0 0 0.5584 19.6782 -130.729)" id="Layer_1">
<path style="stroke: none; stroke-width: 1; stroke-dasharray: none; stroke-linecap: butt; stroke-dashoffset: 0; stroke-linejoin: miter; stroke-miterlimit: 4; is-custom-font: none; font-file-url: none; fill: rgb(196,142,142); fill-rule: nonzero; opacity: 1;" transform=" translate(-356.1184, -77.6606)" d="M 355.9 75.28 a 2.12 2.12 0 0 0 -2.16 1.32 a 2.15 2.15 0 0 0 0.44 1.88 a 6.33 6.33 0 0 0 1.5 1.32 a 1 1 0 0 0 0.57 0.25 a 0.94 0.94 0 0 0 0.56 -0.26 c 0.7 -0.55 1.9 -2 1.73 -2.94 S 356.77 75.33 355.9 75.28 Z" stroke-linecap="round"/>
</g>
		<g transform="matrix(0.5584 0 0 0.5584 24.1013 -136.4699)" id="Layer_1">
<path style="stroke: none; stroke-width: 1; stroke-dasharray: none; stroke-linecap: butt; stroke-dashoffset: 0; stroke-linejoin: miter; stroke-miterlimit: 4; is-custom-font: none; font-file-url: none; fill: rgb(196,142,142); fill-rule: nonzero; opacity: 1;" transform=" translate(-364.0388, -67.3804)" d="M 363.82 65 a 2.12 2.12 0 0 0 -2.16 1.31 a 2.18 2.18 0 0 0 0.44 1.89 a 6.56 6.56 0 0 0 1.5 1.32 a 1 1 0 0 0 0.57 0.25 a 0.94 0.94 0 0 0 0.56 -0.26 c 0.7 -0.55 1.9 -2 1.73 -3 S 364.69 65.05 363.82 65 Z" stroke-linecap="round"/>
</g>
		<g transform="matrix(0.5584 0 0 0.5584 35.9071 -102.3725)" id="Layer_1">
<path style="stroke: none; stroke-width: 1; stroke-dasharray: none; stroke-linecap: butt; stroke-dashoffset: 0; stroke-linejoin: miter; stroke-miterlimit: 4; is-custom-font: none; font-file-url: none; fill: none; fill-rule: nonzero; opacity: 1;" transform=" translate(-385.18, -128.44)" d="M 374.23 103.24 c 5.32 6.61 13.06 11.34 16.8 19 c 4.7 9.58 1.9 21.23 5.1 31.4" stroke-linecap="round"/>
</g>
		<g transform="matrix(0.5584 0 0 0.5584 8.3002 -130.1627)" id="Layer_1">
<linearGradient id="SVGID_85" gradientUnits="userSpaceOnUse" gradientTransform="matrix(0.9637 -0.2671 0.2671 0.9637 -275.97 79.48)" x1="578.36" y1="162.51" x2="602.42" y2="162.51">
<stop offset="0%" style="stop-color:rgb(229,198,214);stop-opacity: 1"/>
<stop offset="42%" style="stop-color:rgb(234,212,208);stop-opacity: 1"/>
<stop offset="100%" style="stop-color:rgb(240,233,203);stop-opacity: 1"/>
</linearGradient>
<path style="stroke: none; stroke-width: 1; stroke-dasharray: none; stroke-linecap: butt; stroke-dashoffset: 0; stroke-linejoin: miter; stroke-miterlimit: 4; is-custom-font: none; font-file-url: none; fill: url(#SVGID_85); fill-rule: nonzero; opacity: 1;" transform=" translate(-335.7454, -78.6774)" d="M 338.05 76.48 c -3.95 -7.58 -6.58 -15.9 -9.19 -24.16 c -1.21 -3.84 -3 -8.32 -6.23 -9.29 s -6 2.46 -6.15 6.3 s 1.59 7.7 3.72 10.9 c 1.19 1.77 2.5 3.43 3.56 5.31 a 48.13 48.13 0 0 1 2.8 6.45 a 247.57 247.57 0 0 0 19.32 39.55 a 8.12 8.12 0 0 0 1.82 2.32 c 2.13 1.62 4.72 -0.12 5.85 -2.5 c 2.32 -4.86 2.12 -14.79 -2.24 -18.53 A 53.3 53.3 0 0 1 338.05 76.48 Z" stroke-linecap="round"/>
</g>
		<g transform="matrix(0.5584 0 0 0.5584 17.6171 -72.2626)" id="Layer_1">
<path style="stroke: none; stroke-width: 1; stroke-dasharray: none; stroke-linecap: butt; stroke-dashoffset: 0; stroke-linejoin: miter; stroke-miterlimit: 4; is-custom-font: none; font-file-url: none; fill: rgb(44,44,44); fill-rule: nonzero; opacity: 1;" transform=" translate(-352.4292, -182.3567)" d="M 345 196.4 c 1.89 1.37 4.12 2.59 6.43 2.31 a 10.93 10.93 0 0 0 4.14 -1.74 l 15.4 -9.19 c 1.45 -0.87 3.13 -2.26 2.64 -3.87 a 3.74 3.74 0 0 0 -0.91 -1.36 c -5.47 -6 -3.22 -10.12 -11 -12.45 c -5 -1.51 -19.58 -2.55 -24.67 -3.73 c -6.24 -1.45 -6.3 1 -5.53 6.95 A 34.21 34.21 0 0 0 345 196.4 Z" stroke-linecap="round"/>
</g>
		<g transform="matrix(0.5584 0 0 0.5584 24.1133 -86.0861)" id="Layer_1">
<linearGradient id="SVGID_86" gradientUnits="userSpaceOnUse" gradientTransform="matrix(1 0 0 1 0 0)" x1="328.7" y1="138.84" x2="467.57" y2="205.17">
<stop offset="12%" style="stop-color:rgb(1,1,1);stop-opacity: 0"/>
<stop offset="95%" style="stop-color:rgb(1,1,1);stop-opacity: 1"/>
</linearGradient>
<path style="stroke: none; stroke-width: 1; stroke-dasharray: none; stroke-linecap: butt; stroke-dashoffset: 0; stroke-linejoin: miter; stroke-miterlimit: 4; is-custom-font: none; font-file-url: none; fill: url(#SVGID_86); fill-rule: nonzero; opacity: 1;" transform=" translate(-364.0612, -157.6041)" d="M 373.41 131.31 a 4.44 4.44 0 0 1 -0.3 1.62 a 4.17 4.17 0 0 1 -1.45 1.53 a 45.69 45.69 0 0 1 -11.57 6.18 c -1.73 0.63 -3.6 1.21 -4.77 2.63 c -1.7 2.06 -1.33 5.16 -0.2 7.57 a 5 5 0 0 1 0.67 2.06 a 4.9 4.9 0 0 1 -0.41 1.62 a 20.06 20.06 0 0 0 -1.24 6 c -0.1 2 -0.08 4.26 -1.69 5.35 c -0.52 0.35 -1.15 0.51 -1.69 0.82 a 1.68 1.68 0 0 0 -1 1.49 a 2.14 2.14 0 0 0 0.29 0.76 l 7.26 13.65 c 1 1.94 2.33 4.09 4.49 4.53 a 7.42 7.42 0 0 0 4.09 -0.71 l 7 -2.61 c -0.74 -2.46 -2.88 -4.2 -4.3 -6.35 c -1.76 -2.68 -2.35 -6 -2.73 -9.16 c -0.49 -4.22 -0.67 -8.58 0.46 -12.68 s 3.76 -8 7.62 -9.74 c 1.66 -0.77 3.72 -1.37 4.28 -3.1 a 5.78 5.78 0 0 0 0 -2.55 a 23.3 23.3 0 0 1 0 -6.46 a 4 4 0 0 0 -0.09 -2.26 a 3.72 3.72 0 0 0 -0.94 -1.08 c -0.56 -0.5 -2.21 -2.52 -3.08 -2.37 S 373.45 130.49 373.41 131.31 Z" stroke-linecap="round"/>
</g>
		<g transform="matrix(0.5584 0 0 0.5584 30.7701 -100.211)" id="Layer_1">
<linearGradient id="SVGID_87" gradientUnits="userSpaceOnUse" gradientTransform="matrix(0.9863 -0.165 0.165 0.9863 -172.93 42.29)" x1="506.14" y1="178.14" x2="543.91" y2="178.14">
<stop offset="0%" style="stop-color:rgb(229,198,214);stop-opacity: 1"/>
<stop offset="42%" style="stop-color:rgb(234,212,208);stop-opacity: 1"/>
<stop offset="100%" style="stop-color:rgb(240,233,203);stop-opacity: 1"/>
</linearGradient>
<path style="stroke: none; stroke-width: 1; stroke-dasharray: none; stroke-linecap: butt; stroke-dashoffset: 0; stroke-linejoin: miter; stroke-miterlimit: 4; is-custom-font: none; font-file-url: none; fill: url(#SVGID_87); fill-rule: nonzero; opacity: 1;" transform=" translate(-375.9817, -132.31)" d="M 392.56 133.2 a 11.14 11.14 0 0 1 2 4.77 a 5.06 5.06 0 0 1 -1.79 4.65 a 6.74 6.74 0 0 1 -2.84 1 c -4.5 0.8 -9.12 0.46 -13.68 0.81 s -9.31 1.54 -12.55 4.76 a 2.84 2.84 0 0 1 -1.83 1.14 a 2.24 2.24 0 0 1 -1.24 -0.49 a 7.55 7.55 0 0 1 -3.07 -8 a 6.16 6.16 0 0 1 7.12 -4.26 a 8 8 0 0 0 1.5 0.38 a 4.64 4.64 0 0 0 1.76 -0.31 l 11.24 -3.55 a 8 8 0 0 1 -4.56 -5.18 a 24 24 0 0 1 -0.86 -7.07 c 0 -1.37 -1.11 -7.53 1.44 -7.56 c 1.26 0 4.74 5.09 5.75 6.11 C 384.9 124.41 389.7 128.24 392.56 133.2 Z" stroke-linecap="round"/>
</g>
		<g transform="matrix(0.5584 0 0 0.5584 43.0724 -56.2973)" id="Layer_1">
<linearGradient id="SVGID_88" gradientUnits="userSpaceOnUse" gradientTransform="matrix(0.9917 -0.1286 0.1286 0.9917 -135.03 30.41)" x1="468.96" y1="247.56" x2="542.26" y2="247.56">
<stop offset="0%" style="stop-color:rgb(229,198,214);stop-opacity: 1"/>
<stop offset="42%" style="stop-color:rgb(234,212,208);stop-opacity: 1"/>
<stop offset="100%" style="stop-color:rgb(240,233,203);stop-opacity: 1"/>
</linearGradient>
<path style="stroke: none; stroke-width: 1; stroke-dasharray: none; stroke-linecap: butt; stroke-dashoffset: 0; stroke-linejoin: miter; stroke-miterlimit: 4; is-custom-font: none; font-file-url: none; fill: url(#SVGID_88); fill-rule: nonzero; opacity: 1;" transform=" translate(-398.0129, -210.9462)" d="M 380.75 210.22 c 7.81 5.07 17.17 7.82 24 14.13 c 2.8 2.57 5.09 5.67 7.92 8.21 s 6.44 4.57 10.24 4.31 c 6.1 -0.41 10.2 -6.23 13.38 -11.45 a 2.29 2.29 0 0 0 0.45 -2 a 2 2 0 0 0 -1 -0.83 c -3.9 -1.74 -8.44 0 -12.68 -0.49 c -4.78 -0.6 -8.65 -4 -12.25 -7.24 A 380.87 380.87 0 0 0 374.11 186 c -0.81 -0.56 -0.87 -1 -1.86 -1 a 5.65 5.65 0 0 0 -3.37 1.22 c -2 1.68 -8.45 5 -9.39 7.42 c -1.3 3.27 2.33 3.31 5.41 5.07 S 377.52 210.64 380.75 210.22 Z" stroke-linecap="round"/>
</g>
		<g transform="matrix(0.5584 0 0 0.5584 33.7868 -84.0795)" id="Layer_1">
<path style="stroke: none; stroke-width: 1; stroke-dasharray: none; stroke-linecap: butt; stroke-dashoffset: 0; stroke-linejoin: miter; stroke-miterlimit: 4; is-custom-font: none; font-file-url: none; fill: rgb(44,44,44); fill-rule: nonzero; opacity: 1;" transform=" translate(-381.384, -161.1966)" d="M 368.13 144.22 c 8.8 -4.6 19.68 -0.24 29.41 -2.28 c 1.68 -0.36 3.52 -0.89 5 -0.09 s 1.73 3.63 0 3.89 c 1.26 0 1 2.16 -0.07 2.74 s -2.53 0.44 -3.55 1.17 c -0.5 0.36 -0.86 0.91 -1.37 1.26 a 5 5 0 0 1 -3.31 0.39 a 34.35 34.35 0 0 0 -13.44 1.39 c -2.93 0.91 -3.48 2.31 -5.48 4.64 c -2.12 2.49 -1.92 9 -1.07 12 c -0.32 0 -3.63 -5.47 -3.87 -5.22 c -5.3 5.58 1.39 8.84 1.62 9.17 c 4.22 6.11 -3.78 3.24 -1.08 7.19 c 1.57 2.3 -4.77 -4.14 -6.11 -5.57 c -2.34 -2.49 -5.13 -5.41 -5.57 -8.87 C 358.29 157.92 360.31 148.31 368.13 144.22 Z" stroke-linecap="round"/>
</g>
		<g transform="matrix(0.5584 0 0 0.5584 15.0523 -68.4092)" id="Layer_1">
<path style="stroke: none; stroke-width: 1; stroke-dasharray: none; stroke-linecap: butt; stroke-dashoffset: 0; stroke-linejoin: miter; stroke-miterlimit: 4; is-custom-font: none; font-file-url: none; fill: none; fill-rule: nonzero; opacity: 1;" transform=" translate(-347.835, -189.2559)" d="M 353.8 186.16 a 10.42 10.42 0 0 0 -11.93 6.43" stroke-linecap="round"/>
</g>
		<g transform="matrix(0.5584 0 0 0.5584 63.6068 98.9008)" id="Layer_1">
<path style="stroke: none; stroke-width: 1; stroke-dasharray: none; stroke-linecap: butt; stroke-dashoffset: 0; stroke-linejoin: miter; stroke-miterlimit: 4; is-custom-font: none; font-file-url: none; fill: rgb(44,44,44); fill-rule: nonzero; opacity: 1;" transform=" translate(-434.7826, -488.8566)" d="M 413.86 496.58 a 9.4 9.4 0 0 0 0.27 2.12 a 5.24 5.24 0 0 0 2.51 2.76 c 2.85 1.62 6.35 1.67 9.57 1.05 s 6.3 -1.84 9.48 -2.63 c 7.67 -1.91 16.36 -1.48 22.62 -6.31 a 3.7 3.7 0 0 0 1 -1.05 c 0.9 -1.58 -0.54 -3.48 -2.05 -4.49 c -9.45 -6.32 -23.81 -0.68 -32.64 -7.85 c -3.47 -2.81 -9.76 -8.73 -13.59 -2.8 C 407.65 482.59 413.45 491.17 413.86 496.58 Z" stroke-linecap="round"/>
</g>
		<g transform="matrix(0.5584 0 0 0.5584 -34.0372 86.4723)" id="Layer_1">
<path style="stroke: none; stroke-width: 1; stroke-dasharray: none; stroke-linecap: butt; stroke-dashoffset: 0; stroke-linejoin: miter; stroke-miterlimit: 4; is-custom-font: none; font-file-url: none; fill: rgb(44,44,44); fill-rule: nonzero; opacity: 1;" transform=" translate(-259.9317, -466.6015)" d="M 254.12 450.38 a 8.5 8.5 0 0 0 -3.53 2.22 a 8.2 8.2 0 0 0 -1.38 4.12 a 115.46 115.46 0 0 0 -1.07 16.09 a 23.2 23.2 0 0 0 0.51 5.58 a 13.17 13.17 0 0 0 7.52 8.79 c 2.4 1 6 0.74 6.63 -1.78 c 0.54 -2 -1.27 -3.91 -1.63 -6 c -0.33 -1.86 0.55 -3.7 1.4 -5.39 l 7.55 -15 a 13.83 13.83 0 0 0 1.55 -4.14 c 0.45 -3 -1.51 -8.59 -4.89 -9.31 S 257.16 449.12 254.12 450.38 Z" stroke-linecap="round"/>
</g>
		<g transform="matrix(0.5584 0 0 0.5584 44.5306 -43.5122)" id="Layer_1">
<linearGradient id="SVGID_89" gradientUnits="userSpaceOnUse" gradientTransform="matrix(1 0 0 1 0 0)" x1="392.67" y1="233.81" x2="408.54" y2="233.81">
<stop offset="0%" style="stop-color:rgb(229,198,214);stop-opacity: 1"/>
<stop offset="42%" style="stop-color:rgb(234,212,208);stop-opacity: 1"/>
<stop offset="100%" style="stop-color:rgb(240,233,203);stop-opacity: 1"/>
</linearGradient>
<path style="stroke: none; stroke-width: 1; stroke-dasharray: none; stroke-linecap: butt; stroke-dashoffset: 0; stroke-linejoin: miter; stroke-miterlimit: 4; is-custom-font: none; font-file-url: none; fill: url(#SVGID_89); fill-rule: nonzero; opacity: 1;" transform=" translate(-400.6218, -233.8391)" d="M 392.67 230 a 10 10 0 0 0 0.76 3.07 l 1.47 4.07 a 10.78 10.78 0 0 0 1.15 2.51 c 1.69 2.49 5 3.18 8 3.67 a 2.1 2.1 0 0 0 2.56 -1 a 8.6 8.6 0 0 0 1.82 -3.07 a 7.66 7.66 0 0 0 -0.07 -3.3 c -0.8 -4.38 -2 -11.49 -7.17 -11.7 C 397.49 224.09 392.53 225.38 392.67 230 Z" stroke-linecap="round"/>
</g>
		<g transform="matrix(0.5584 0 0 0.5584 8.6889 -27.7167)" id="Layer_1">
<path style="stroke: none; stroke-width: 1; stroke-dasharray: none; stroke-linecap: butt; stroke-dashoffset: 0; stroke-linejoin: miter; stroke-miterlimit: 4; is-custom-font: none; font-file-url: none; fill: rgb(196,142,142); fill-rule: nonzero; opacity: 1;" transform=" translate(-336.442, -262.1285)" d="M 347.59 201.4 c -2.53 2.75 -4.23 6.16 -5.9 9.51 c -5.56 11.2 -11.15 22.49 -14.46 34.56 c -2.58 9.39 -3.8 19.33 -8.58 27.81 c -2.23 4 -6.75 42.17 -8.5 46.36 c -0.79 1.9 -1.22 4.38 0.27 5.81 a 5.38 5.38 0 0 0 2.8 1.18 a 31.42 31.42 0 0 0 11.52 0.05 c 4.27 -9.61 12.89 -52.34 18.49 -61.24 c 5.13 -8.13 9 -17 12.9 -25.77 c 3.13 -7.1 6.29 -14.33 7.13 -22 c 0.62 -5.75 -0.19 -11.92 -3.12 -17 C 356.73 194.8 351.74 196.88 347.59 201.4 Z" stroke-linecap="round"/>
</g>
		<g transform="matrix(0.5584 0 0 0.5584 -3.9099 15.8122)" id="Layer_1">
<linearGradient id="SVGID_90" gradientUnits="userSpaceOnUse" gradientTransform="matrix(1 0 0 1 0 0)" x1="305.13" y1="340.07" x2="322.61" y2="340.07">
<stop offset="0%" style="stop-color:rgb(229,198,214);stop-opacity: 1"/>
<stop offset="42%" style="stop-color:rgb(234,212,208);stop-opacity: 1"/>
<stop offset="100%" style="stop-color:rgb(240,233,203);stop-opacity: 1"/>
</linearGradient>
<path style="stroke: none; stroke-width: 1; stroke-dasharray: none; stroke-linecap: butt; stroke-dashoffset: 0; stroke-linejoin: miter; stroke-miterlimit: 4; is-custom-font: none; font-file-url: none; fill: url(#SVGID_90); fill-rule: nonzero; opacity: 1;" transform=" translate(-313.8799, -340.0706)" d="M 310.69 343.24 a 19.4 19.4 0 0 0 2.55 4 a 19.09 19.09 0 0 0 3.43 2.77 c 1.52 1.05 3.67 2.07 5.05 0.84 c 0.94 -0.83 0.95 -2.27 0.85 -3.52 c -0.38 -5.13 -1.41 -10.59 -5 -14.24 a 19.41 19.41 0 0 0 -5.42 -3.6 c -2.68 -1.27 -6.89 -1.29 -7 2.61 C 305.05 335.31 309.21 340.45 310.69 343.24 Z" stroke-linecap="round"/>
</g>
		<g transform="matrix(0.5584 0 0 0.5584 -3.2484 14.191)" id="Layer_1">
<linearGradient id="SVGID_91" gradientUnits="userSpaceOnUse" gradientTransform="matrix(1 0 0 1 0 0)" x1="307.79" y1="337.18" x2="322.33" y2="337.18">
<stop offset="0%" style="stop-color:rgb(229,198,214);stop-opacity: 1"/>
<stop offset="42%" style="stop-color:rgb(234,212,208);stop-opacity: 1"/>
<stop offset="100%" style="stop-color:rgb(240,233,203);stop-opacity: 1"/>
</linearGradient>
<path style="stroke: none; stroke-width: 1; stroke-dasharray: none; stroke-linecap: butt; stroke-dashoffset: 0; stroke-linejoin: miter; stroke-miterlimit: 4; is-custom-font: none; font-file-url: none; fill: url(#SVGID_91); fill-rule: nonzero; opacity: 1;" transform=" translate(-315.0644, -337.1677)" d="M 309.52 333.63 a 24.89 24.89 0 0 0 -1.32 13.58 c 0.28 1.53 1 3.33 2.57 3.53 s 2.78 -1.48 3.53 -2.93 l 4.61 -8.94 c 2.08 -4 4.22 -8.52 3.13 -12.93 a 3.36 3.36 0 0 0 -0.9 -1.73 a 3.64 3.64 0 0 0 -3.35 -0.39 C 312.33 325.24 311.44 328.77 309.52 333.63 Z" stroke-linecap="round"/>
</g>
		<g transform="matrix(0.5584 0 0 0.5584 -55.2705 -15.442)" id="Layer_1">
<path style="stroke: none; stroke-width: 1; stroke-dasharray: none; stroke-linecap: butt; stroke-dashoffset: 0; stroke-linejoin: miter; stroke-miterlimit: 4; is-custom-font: none; font-file-url: none; fill: rgb(196,142,142); fill-rule: nonzero; opacity: 1;" transform=" translate(-221.911, -284.1078)" d="M 211.54 263.67 C 208 267.2 200.05 278 197.1 282.08 c -6.67 9.17 -5.41 21.67 -3.83 32.9 c 1.22 8.64 2.53 17.49 6.65 25.19 c 2.28 0.34 4.7 0.66 6.8 -0.29 c 4 -1.8 8.06 -5.78 8.32 -10.15 c 0.56 -9.28 -0.83 -30.91 0.27 -32.36 c 4.47 -5.88 11.87 -16.5 17.23 -21.59 s 16.07 -19 17.83 -26.14 c 2.37 -9.71 4.31 -33.7 -15.68 -15 C 225.9 242.78 220.15 255.16 211.54 263.67 Z" stroke-linecap="round"/>
</g>
		<g transform="matrix(0.5584 0 0 0.5584 -62.404 19.9366)" id="Layer_1">
<linearGradient id="SVGID_92" gradientUnits="userSpaceOnUse" gradientTransform="matrix(1 0 0 1 0 0)" x1="201.54" y1="347.46" x2="216.68" y2="347.46">
<stop offset="0%" style="stop-color:rgb(229,198,214);stop-opacity: 1"/>
<stop offset="42%" style="stop-color:rgb(234,212,208);stop-opacity: 1"/>
<stop offset="100%" style="stop-color:rgb(240,233,203);stop-opacity: 1"/>
</linearGradient>
<path style="stroke: none; stroke-width: 1; stroke-dasharray: none; stroke-linecap: butt; stroke-dashoffset: 0; stroke-linejoin: miter; stroke-miterlimit: 4; is-custom-font: none; font-file-url: none; fill: url(#SVGID_92); fill-rule: nonzero; opacity: 1;" transform=" translate(-209.1354, -347.4564)" d="M 202.9 351.94 c 1.24 4.27 4.06 8.31 8.21 9.91 a 2 2 0 0 0 0.92 0.17 a 1.86 1.86 0 0 0 1 -0.52 a 10.52 10.52 0 0 0 3.4 -5.65 c 0.94 -4.22 -0.79 -8.65 -0.1 -12.91 a 11.58 11.58 0 0 0 0.3 -2.26 a 6.65 6.65 0 0 0 -1.76 -3.89 a 19.08 19.08 0 0 0 -3.44 -3.28 a 2.48 2.48 0 0 0 -1.46 -0.62 c -2.64 0.07 -7.05 4.5 -7.87 7 C 200.9 343.32 201.91 348.56 202.9 351.94 Z" stroke-linecap="round"/>
</g>
		<g transform="matrix(0.5584 0 0 0.5584 28.4771 -79.3157)" id="Layer_1">
<linearGradient id="SVGID_93" gradientUnits="userSpaceOnUse" gradientTransform="matrix(1 0 0 1 0 0)" x1="370.7" y1="170.21" x2="375.87" y2="168.19">
<stop offset="12%" style="stop-color:rgb(1,1,1);stop-opacity: 0"/>
<stop offset="95%" style="stop-color:rgb(1,1,1);stop-opacity: 1"/>
</linearGradient>
<path style="stroke: none; stroke-width: 1; stroke-dasharray: none; stroke-linecap: butt; stroke-dashoffset: 0; stroke-linejoin: miter; stroke-miterlimit: 4; is-custom-font: none; font-file-url: none; fill: url(#SVGID_93); fill-rule: nonzero; opacity: 0.79;" transform=" translate(-371.8745, -169.7256)" d="M 372.23 168.52 a 3 3 0 0 0 -1.64 -1.33 a 0.51 0.51 0 0 0 -0.21 -0.06 c -0.19 0 -0.29 0.21 -0.35 0.39 a 3.35 3.35 0 0 0 -0.24 0.93 a 3.44 3.44 0 0 0 0.58 1.75 a 4.78 4.78 0 0 0 1.05 1.45 a 3 3 0 0 0 1.43 0.63 c 1.21 0.21 1.44 -0.42 0.64 -1.08 C 372.42 170.31 372.73 169.7 372.23 168.52 Z" stroke-linecap="round"/>
</g>
		<g transform="matrix(0.5584 0 0 0.5584 22.2587 -66.9777)" id="Layer_1">
<path style="stroke: none; stroke-width: 1; stroke-dasharray: none; stroke-linecap: butt; stroke-dashoffset: 0; stroke-linejoin: miter; stroke-miterlimit: 4; is-custom-font: none; font-file-url: none; fill: rgb(44,44,44); fill-rule: nonzero; opacity: 1;" transform=" translate(-360.74, -191.8195)" d="M 350.05 198.5 s 15.08 -10.62 21.38 -13.67 c 0 0 -12.75 8.73 -11.94 10.43 s 0.44 1.08 0.44 1.08 S 352.2 199.85 350.05 198.5 Z" stroke-linecap="round"/>
</g>
		<g transform="matrix(0.5584 0 0 0.5584 22.2587 -66.9777)" id="Layer_1">
<linearGradient id="SVGID_94" gradientUnits="userSpaceOnUse" gradientTransform="matrix(1 0 0 1 0 0)" x1="350.05" y1="191.82" x2="371.43" y2="191.82">
<stop offset="12%" style="stop-color:rgb(1,1,1);stop-opacity: 0"/>
<stop offset="95%" style="stop-color:rgb(1,1,1);stop-opacity: 1"/>
</linearGradient>
<path style="stroke: none; stroke-width: 1; stroke-dasharray: none; stroke-linecap: butt; stroke-dashoffset: 0; stroke-linejoin: miter; stroke-miterlimit: 4; is-custom-font: none; font-file-url: none; fill: url(#SVGID_94); fill-rule: nonzero; opacity: 1;" transform=" translate(-360.74, -191.8195)" d="M 350.05 198.5 s 15.08 -10.62 21.38 -13.67 c 0 0 -12.75 8.73 -11.94 10.43 s 0.44 1.08 0.44 1.08 S 352.2 199.85 350.05 198.5 Z" stroke-linecap="round"/>
</g>
</g>
</g>
</svg>